<svg width="350" height="144" viewBox="0 0 350 144" fill="none" xmlns="http://www.w3.org/2000/svg">
<rect width="350" height="144" rx="2" fill="black"/>
<path d="M88.4801 52.7978V95.9888H83.7615V52.7978H80V48.0676H92.1859V52.7978H88.4801Z" fill="white"/>
<path d="M100.855 95.9888V48.0563H110.66V52.7865H105.518V68.779H109.903V73.5767H105.518V91.2473H110.76V95.9775H100.855V95.9888Z" fill="white"/>
<path d="M128.176 95.9888C127.876 94.3107 127.775 92.4524 127.731 90.3013L127.586 78.8025C127.542 76.1108 127.241 75.0296 125.895 75.0296H125.049V96H120.163V48.0563H127.097C131.036 48.0563 132.884 50.4552 132.884 55.4895V66.6279C132.884 69.3196 131.882 70.8851 129.645 71.8424V71.9662C132.038 72.7433 132.438 75.9193 132.539 82.0911L132.639 90.4815C132.639 92.4524 132.739 94.2544 133.139 95.9888H128.176ZM127.92 54.8926C127.92 53.5186 127.375 52.8541 126.229 52.8541H125.027V70.2318H126.028C127.375 70.2318 127.92 69.5786 127.92 67.833V54.8926Z" fill="white"/>
<path d="M154.807 95.9888V67.7654H154.707L151.858 95.9775H149.109L146.115 67.7654V95.9775H141.798V48.0563H147.34L150.522 77.3496H150.667L154.117 48.0563H159.069V95.9775H154.807V95.9888Z" fill="white"/>
<path d="M168.618 95.9888V48.0563H173.336V95.9775H168.618V95.9888Z" fill="white"/>
<path d="M192.211 95.9888L187.748 68.4862H187.548V95.9888H183.385V48.0563H187.703L191.487 73.0362H191.632V48.0563H195.905V95.9775H192.211V95.9888Z" fill="white"/>
<path d="M212.854 95.9887L212.476 86.2243H209.093L208.525 95.9887H204.285L208.236 48H214.001L217.573 95.9887H212.854ZM210.907 58.1811H210.762L209.382 81.5504H212.187L210.907 58.1811Z" fill="white"/>
<path d="M226.331 95.9888V48.0563H231.261V91.2473H236.792V95.9775H226.331V95.9888Z" fill="white"/>
<path d="M265.003 95.9888L263.189 78.4421H263.045L261.186 95.9888H256.902L260.518 70.7724L256.946 48.0676H261.898L263.712 64.7809H263.901L265.76 48.0676H269.955L266.428 70.8963L270 96H265.003V95.9888Z" fill="white"/>
</svg>
